<svg xmlns="http://www.w3.org/2000/svg" xmlns:xlink="http://www.w3.org/1999/xlink" width="500" zoomAndPan="magnify" viewBox="0 0 375 374.999991" height="500" preserveAspectRatio="xMidYMid meet" version="1.0"><defs><clipPath id="ee8783333d"><path d="M 15.378906 18 L 255 18 L 255 371.570312 L 15.378906 371.570312 Z M 15.378906 18 " clip-rule="nonzero"/></clipPath><clipPath id="91abbec39c"><path d="M 216 46 L 359.589844 46 L 359.589844 218 L 216 218 Z M 216 46 " clip-rule="nonzero"/></clipPath></defs><g clip-path="url(#ee8783333d)"><path fill="#5ce1e6" d="M 50.996094 20.140625 C 50.996094 20.140625 152.503906 3.316406 212.609375 66.277344 C 341.699219 201.464844 141.691406 339.355469 15.410156 371.570312 C 15.410156 371.570312 159.128906 282.617188 161.78125 155.378906 C 73.632812 116.484375 55.328125 83.449219 50.996094 20.140625 Z M 50.996094 20.140625 " fill-opacity="1" fill-rule="evenodd"/></g><path fill="#00c2cb" d="M 50.996094 20.140625 C 50.996094 20.140625 152.503906 3.316406 212.609375 66.277344 C 262.367188 118.425781 263.183594 170.980469 238.203125 217.675781 C 198.027344 171.539062 161.78125 155.378906 161.78125 155.378906 C 73.632812 116.484375 55.328125 83.449219 50.996094 20.140625 Z M 50.996094 20.140625 " fill-opacity="1" fill-rule="evenodd"/><g clip-path="url(#91abbec39c)"><path fill="#03989e" d="M 216.539062 70.601562 C 251.613281 45.878906 310.90625 28.292969 329.769531 79.984375 C 329.769531 79.984375 351.082031 89.769531 359.542969 104.449219 C 359.542969 104.449219 325.742188 95.121094 299.488281 118.214844 C 273.230469 141.359375 277.105469 186.625 238.210938 217.667969 C 262.523438 172.253906 262.367188 121.277344 216.539062 70.601562 Z M 216.539062 70.601562 " fill-opacity="1" fill-rule="evenodd"/></g></svg>